<svg xmlns="http://www.w3.org/2000/svg" viewBox="0 0 128 128">
  <defs>
    <linearGradient id="bg" x1="0" y1="0" x2="1" y2="1">
      <stop offset="0" stop-color="#4f6ef7"/>
      <stop offset="1" stop-color="#1e3a8a"/>
    </linearGradient>
  </defs>
  <rect width="128" height="128" rx="24" fill="url(#bg)"/>
  <g fill="none" stroke="#ffffff" stroke-width="7" stroke-linecap="round" stroke-linejoin="round">
    <path d="M64 38 C58 33.5 50 31.5 42 31.5 C36 31.5 30 32.5 26 34.5 L26 92.5 C30 90.5 36 89.5 42 89.5 C50 89.5 58 91.5 64 96 Z"/>
    <path d="M64 38 C70 33.5 78 31.5 86 31.5 C92 31.5 98 32.5 102 34.5 L102 92.5 C98 90.5 92 89.5 86 89.5 C78 89.5 70 91.5 64 96 Z"/>
  </g>
</svg>
